C:\Users\r0593348\3dpredictsim\Results\Batchsim_tmt_linear\Pog_s1_tmt_aCst_d05_k800_ig24_pas_GRF.mot
nRows=27
nColumns=19

name C:\Users\r0593348\3dpredictsim\Results\Batchsim_tmt_linear\Pog_s1_tmt_aCst_d05_k800_ig24_pas_GRF.mot
datacolumns 19
datarows 27
range 0.0000000000 0.2874443026
endheader
time 	ground_force_vx	ground_force_vy	ground_force_vz	ground_force_px	ground_force_py	ground_force_pz	1_ground_force_vx	1_ground_force_vy	1_ground_force_vz	1_ground_force_px	1_ground_force_py	1_ground_force_pz	ground_torque_x	ground_torque_y	ground_torque_z	1_ground_torque_x	1_ground_torque_y	1_ground_torque_z
        0.0000000000	     -101.1723773402	       93.6839587652	       42.7192479345	        0.1668258154	        0.0000000000	        0.0377606122	       93.9773783369	      469.6912232973	       -5.1216911864	       -0.3207241729	        0.0000000000	       -0.0352458468	        0.0000000000	        0.0000000000	        0.0000000000	        0.0000000000	        0.0000000000	        0.0000000000	
        0.0110555501	      -92.4353906131	      195.7089928835	       74.8460382556	        0.1731606212	        0.0000000000	        0.0359986373	       75.7305815152	      386.2012511274	      -10.1068555165	       -0.3165689565	        0.0000000000	       -0.0340255227	        0.0000000000	        0.0000000000	        0.0000000000	        0.0000000000	        0.0000000000	        0.0000000000	
        0.0221111002	      -46.4495128927	      354.5194891558	       16.7906936601	        0.1773329091	        0.0000000000	        0.0343404419	       55.2706658577	      298.7088448228	       -7.4278060571	       -0.3101210303	        0.0000000000	       -0.0315115383	        0.0000000000	        0.0000000000	        0.0000000000	        0.0000000000	        0.0000000000	        0.0000000000	
        0.0331666503	      -52.1733675763	      526.0774291259	       -2.5964387712	        0.1831634398	        0.0000000000	        0.0355065328	       27.0626683017	      197.5650263437	       -6.1304985770	       -0.2975928733	        0.0000000000	       -0.0258980461	        0.0000000000	        0.0000000000	        0.0000000000	        0.0000000000	        0.0000000000	        0.0000000000	
        0.0442222004	      -86.1706608466	      702.1092287237	       -9.6491343263	        0.1910688589	        0.0000000000	        0.0379160275	        7.5134744111	      138.2432328942	      -10.5619109345	       -0.2848463260	        0.0000000000	       -0.0193762998	        0.0000000000	        0.0000000000	        0.0000000000	        0.0000000000	        0.0000000000	        0.0000000000	
        0.0552777505	     -106.8118892639	      807.7813234916	      -12.7831398070	        0.1964758666	        0.0000000000	        0.0394452219	        1.3385317476	      108.4976075778	      -11.8198430515	       -0.2849020197	        0.0000000000	       -0.0196662463	        0.0000000000	        0.0000000000	        0.0000000000	        0.0000000000	        0.0000000000	        0.0000000000	
        0.0663333006	     -110.4760915066	      843.1821165301	      -13.6187032081	        0.2002038585	        0.0000000000	        0.0403551258	       -2.5049857893	       71.0347780017	      -10.9552030567	       -0.2844228270	        0.0000000000	       -0.0197290267	        0.0000000000	        0.0000000000	        0.0000000000	        0.0000000000	        0.0000000000	        0.0000000000	
        0.0773888507	     -105.3262855304	      837.7113154073	      -13.7832202078	        0.2032431499	        0.0000000000	        0.0408812249	       -8.3595597272	       29.4557834900	       -5.8464245767	       -0.2847515251	        0.0000000000	       -0.0195353872	        0.0000000000	        0.0000000000	        0.0000000000	        0.0000000000	        0.0000000000	        0.0000000000	
        0.0884444008	      -95.9859622451	      818.8710991293	      -14.1061503431	        0.2064014091	        0.0000000000	        0.0411385663	        0.0978116079	       -0.0969469125	        0.0022396626	        0.0000000000	        0.0000000000	        0.0000000000	        0.0000000000	        0.0000000000	        0.0000000000	        0.0000000000	        0.0000000000	        0.0000000000	
        0.0994999509	      -83.8410479270	      789.3564825556	      -14.8008341129	        0.2096866034	        0.0000000000	        0.0412427266	        0.0001404920	       -0.0001144485	       -0.0000077723	        0.0000000000	        0.0000000000	        0.0000000000	        0.0000000000	        0.0000000000	        0.0000000000	        0.0000000000	        0.0000000000	        0.0000000000	
        0.1105555010	      -72.7504465776	      756.2778448114	      -15.1189169928	        0.2135256272	        0.0000000000	        0.0412577255	        0.0000583677	       -0.0000413605	       -0.0000042784	        0.0000000000	        0.0000000000	        0.0000000000	        0.0000000000	        0.0000000000	        0.0000000000	        0.0000000000	        0.0000000000	        0.0000000000	
        0.1216110511	      -63.1884109295	      725.4378839604	      -15.2647861787	        0.2179304561	        0.0000000000	        0.0411614179	        0.0005669462	       -0.0003601824	       -0.0000464792	        0.0000000000	        0.0000000000	        0.0000000000	        0.0000000000	        0.0000000000	        0.0000000000	        0.0000000000	        0.0000000000	        0.0000000000	
        0.1326666012	      -53.7031246978	      694.8175852319	      -15.7825899601	        0.2222889961	        0.0000000000	        0.0410694777	        0.0054811541	       -0.0031910798	       -0.0004765607	        0.0000000000	        0.0000000000	        0.0000000000	        0.0000000000	        0.0000000000	        0.0000000000	        0.0000000000	        0.0000000000	        0.0000000000	
        0.1437221513	      -44.4383404203	      665.7250749478	      -16.2900849072	        0.2265366935	        0.0000000000	        0.0410395351	       -0.0288740399	        0.0156330509	        0.0026120395	        0.0000000000	        0.0000000000	        0.0000000000	        0.0000000000	        0.0000000000	        0.0000000000	        0.0000000000	        0.0000000000	        0.0000000000	
        0.1547777014	      -36.5229844075	      640.4971150601	      -16.7657785710	        0.2308700592	        0.0000000000	        0.0410602054	       -0.0199233748	        0.0101419362	        0.0018596556	        0.0000000000	        0.0000000000	        0.0000000000	        0.0000000000	        0.0000000000	        0.0000000000	        0.0000000000	        0.0000000000	        0.0000000000	
        0.1658332515	      -30.0098670925	      619.7603772878	      -17.3982607252	        0.2352402776	        0.0000000000	        0.0411046447	       -0.0139657828	        0.0067441646	        0.0013365640	        0.0000000000	        0.0000000000	        0.0000000000	        0.0000000000	        0.0000000000	        0.0000000000	        0.0000000000	        0.0000000000	        0.0000000000	
        0.1768888016	      -24.4051999511	      603.6634502233	      -17.8817528601	        0.2398411484	        0.0000000000	        0.0411572956	       -0.0126425028	        0.0058361847	        0.0012297476	        0.0000000000	        0.0000000000	        0.0000000000	        0.0000000000	        0.0000000000	        0.0000000000	        0.0000000000	        0.0000000000	        0.0000000000	
        0.1879443517	      -20.1682322742	      592.4219777141	      -18.1081303127	        0.2448303729	        0.0000000000	        0.0411907453	       -0.0153075914	        0.0067943822	        0.0015054571	        0.0000000000	        0.0000000000	        0.0000000000	        0.0000000000	        0.0000000000	        0.0000000000	        0.0000000000	        0.0000000000	        0.0000000000	
        0.1989999018	      -17.1834159442	      585.3316911398	      -18.0406589887	        0.2500900987	        0.0000000000	        0.0411870899	       -0.0238870791	        0.0102440483	        0.0023542305	        0.0000000000	        0.0000000000	        0.0000000000	        0.0000000000	        0.0000000000	        0.0000000000	        0.0000000000	        0.0000000000	        0.0000000000	
        0.2100554519	      -15.3673350247	      582.0229277699	      -17.9874558150	        0.2556762598	        0.0000000000	        0.0411300546	       -0.0447918625	        0.0186408675	        0.0043933039	        0.0000000000	        0.0000000000	        0.0000000000	        0.0000000000	        0.0000000000	        0.0000000000	        0.0000000000	        0.0000000000	        0.0000000000	
        0.2211110020	      -14.4411307558	      581.1945720750	      -17.8992613786	        0.2614445643	        0.0000000000	        0.0410240711	       -0.0928522117	        0.0376523185	        0.0090246513	        0.0000000000	        0.0000000000	        0.0000000000	        0.0000000000	        0.0000000000	        0.0000000000	        0.0000000000	        0.0000000000	        0.0000000000	
        0.2321665521	      -13.4560781206	      581.5526742319	      -17.8691064464	        0.2673142386	        0.0000000000	        0.0408779525	       -0.1961004984	        0.0777780135	        0.0188277476	        0.0000000000	        0.0000000000	        0.0000000000	        0.0000000000	        0.0000000000	        0.0000000000	        0.0000000000	        0.0000000000	        0.0000000000	
        0.2432221022	      -12.3355843643	      581.8857722337	      -17.7457633246	        0.2731911916	        0.0000000000	        0.0407059588	       -0.3927635582	        0.1529276656	        0.0371690967	        0.0000000000	        0.0000000000	        0.0000000000	        0.0000000000	        0.0000000000	        0.0000000000	        0.0000000000	        0.0000000000	        0.0000000000	
        0.2542776523	      -10.9483180569	      581.4236054477	      -17.5068471743	        0.2790027453	        0.0000000000	        0.0405211493	       -0.7056439650	        0.2706934366	        0.0656535010	        0.0000000000	        0.0000000000	        0.0000000000	        0.0000000000	        0.0000000000	        0.0000000000	        0.0000000000	        0.0000000000	        0.0000000000	
        0.2653332024	       -9.1707708412	      579.7423405244	      -17.1684220103	        0.2847325229	        0.0000000000	        0.0403307731	       -1.1021697536	        0.4179304849	        0.1004578782	        0.0000000000	        0.0000000000	        0.0000000000	        0.0000000000	        0.0000000000	        0.0000000000	        0.0000000000	        0.0000000000	        0.0000000000	
        0.2763887525	       -6.8757369082	      576.1426636420	      -16.8854566260	        0.2903420439	        0.0000000000	        0.0401395482	       -1.4849538005	        0.5582049164	        0.1317115444	        0.0000000000	        0.0000000000	        0.0000000000	        0.0000000000	        0.0000000000	        0.0000000000	        0.0000000000	        0.0000000000	        0.0000000000	
        0.2874443026	       -3.8114491133	      570.8464152877	      -16.1488332663	        0.2959189895	        0.0000000000	        0.0399449898	       -1.7464962099	        0.6523507862	        0.1490245836	        0.0000000000	        0.0000000000	        0.0000000000	        0.0000000000	        0.0000000000	        0.0000000000	        0.0000000000	        0.0000000000	        0.0000000000	
